<?xml version="1.0" encoding="UTF-8"?>
<svg xmlns="http://www.w3.org/2000/svg" version="1.1" viewBox="0 0 207.69 204.62">
  <defs>
    <style>
      .cls-1 {
        fill: #fff;
      }
    </style>
  </defs>
  <!-- Generator: Adobe Illustrator 28.6.0, SVG Export Plug-In . SVG Version: 1.2.0 Build 709)  -->
  <g>
    <g id="Camada_1">
      <g>
        <path class="cls-1" d="M66.05,93.7c10.79-16.97,19.98-26.78,19.98-26.78,0,0-7.98,1.94-19.13,8.85-11.15,6.91-17.21,6.67-17.21,6.67,3.39,4.6,18.18-4.41,18.18-4.41-10.66,9.65-16.84,22.77-16.84,22.77,0,0-7.03,12.55-1.45,16.55,5.57,4,11.63,0,11.63,0-8.6-1.09,4.85-23.63,4.85-23.63ZM84.21,68.44s-16.13,17.18-22.44,30.15c0,0-9.65,16.8-2.38,18.38,0,0-6.84-2.64,5.32-22.62,0,0,4.53-7.77,19.5-25.91ZM112.39,73.06s-3.07-4.74-18.1-3.14c0,0-14.06,7.42-20.12,26.81,0,0-5.57,21.13,10.66,22.38,0,0,4.48.04,10.54-4.32,0,0-6.34,3.76-9.35,3.51,0,0-8.1-5.7,1.47-23.27,0,0,12.69-21.28,24.89-21.97ZM106.65,96.8c-6.42,13.64-20.62,20.17-20.62,20.17,22.76-4.36,29.46-30.17,29.46-30.17,2.67-12.72-8.84-9.9-8.84-9.9,8.48,5.86,0,19.9,0,19.9ZM109.19,72.37s-20.47,7.33-25.96,28.41c0,0,6.58-19.08,25.96-28.41ZM97.39,112.44c-11.87,6.93-13.74,2.38-13.74,2.38.43,1.31,2.01,3.63,2.65,3.57,8.21-.73,11.09-5.95,11.09-5.95ZM155.04,73.06s-3.07-4.74-18.1-3.14c0,0-14.06,7.42-20.12,26.81,0,0-5.57,21.13,10.66,22.38,0,0,4.48.04,10.54-4.32,0,0-6.34,3.76-9.35,3.51,0,0-8.1-5.7,1.47-23.27,0,0,12.69-21.28,24.89-21.97ZM149.3,96.8c-6.42,13.64-20.62,20.17-20.62,20.17,22.76-4.36,29.46-30.17,29.46-30.17,2.67-12.72-8.84-9.9-8.84-9.9,8.48,5.86,0,19.9,0,19.9ZM151.84,72.37s-20.47,7.33-25.96,28.41c0,0,6.58-19.08,25.96-28.41ZM140.04,112.44c-11.87,6.93-13.74,2.38-13.74,2.38.43,1.31,2.01,3.63,2.65,3.57,8.21-.73,11.09-5.95,11.09-5.95ZM148.98,133.74v6.94c0,4.42-1.76,8.66-4.88,11.78h0c-3.12,3.12-7.36,4.88-11.78,4.88h-11.55c-3.17,0-6.27.91-8.95,2.61l-6.4,4.09c1.89-14.86,7.14-21.12,33.5-19.37-2.91,4.81-12.96,5.1-12.96,5.1,8.45,0,12.67.15,16.31-4.66,3.64-4.81,1.17-8.88,6.7-11.36ZM100.23,164.03l-6.4-4.09c-2.67-1.71-5.78-2.61-8.95-2.61h-11.55c-4.42,0-8.66-1.76-11.78-4.88h0c-3.12-3.12-4.88-7.36-4.88-11.78v-6.94c5.53,2.48,3.06,6.55,6.7,11.36,3.64,4.81,7.87,4.66,16.31,4.66,0,0-10.05-.29-12.96-5.1,26.36-1.75,31.61,4.52,33.5,19.37ZM76.51,139.3l-.2-1.58h-.08c-.77,1.2-1.92,1.83-3.28,1.83-2.22,0-3.9-1.86-3.9-4.59,0-3.98,3.37-5.67,6.88-5.7v-.41c0-1.61-.63-2.75-2.32-2.75-1.11,0-2.05.32-2.89.86l-.65-2.32c.76-.48,2.4-1.11,4.29-1.11,3.99,0,5.01,2.73,5.01,6.03v6.2c0,1.21.04,2.5.2,3.53h-3.05ZM76.02,131.54c-1.32.02-3.72.39-3.72,3.09,0,1.75.93,2.38,1.68,2.38.85,0,1.67-.58,1.96-1.77.06-.24.08-.52.08-.79v-2.91ZM88.9,128.17c0-1.75-.08-3-.13-4.37h2.95l.17,1.82h.06c.74-1.24,2.04-2.08,3.67-2.08,2.58,0,3.96,2.01,3.96,5.6v10.16h-3.4v-9.83c0-1.55-.33-3.06-1.81-3.06-.84,0-1.6.65-1.9,1.9-.1.34-.17.84-.17,1.41v9.59h-3.4v-11.14ZM119.61,131.51c0,6.25-3.22,8.04-5.58,8.04-3.29,0-5.53-2.75-5.53-7.97,0-5.6,2.75-8.04,5.65-8.04,3.25,0,5.47,2.86,5.47,7.97ZM111.89,131.53c0,2.61.44,5.4,2.25,5.4,1.69,0,2.08-3.06,2.08-5.4s-.39-5.37-2.14-5.37-2.19,3.12-2.19,5.37ZM128.28,136.09c.58.37,1.65.81,2.67.81,1.21,0,1.95-.65,1.95-1.77,0-.97-.45-1.61-1.89-2.52-2.3-1.37-3.14-2.86-3.14-4.44,0-2.67,1.95-4.63,4.74-4.63,1.26,0,2.23.36,2.97.76l-.7,2.51c-.59-.37-1.29-.66-2.12-.66-1.17,0-1.75.78-1.75,1.61s.38,1.33,1.87,2.27c2.06,1.23,3.16,2.76,3.16,4.7,0,3.15-2.21,4.76-5.12,4.76-1.22,0-2.63-.35-3.32-.89l.67-2.51Z"/>
        <path class="cls-1" d="M98.04,49.34h-2.1c-.87,0-1.57.61-1.57,1.36v.97h2.1v-.06c0-.25.24-.45.52-.45s.52.2.52.45v1.08c-.31-.16-.69-.24-1.05-.24-1.15,0-2.1.81-2.1,1.81v2.33c0,1,.94,1.81,2.1,1.81.36,0,.74-.09,1.05-.24v.24h2.1v-7.7c0-.75-.71-1.36-1.57-1.36ZM97.51,56.14c0,.25-.24.45-.52.45s-.52-.2-.52-.45v-1.68c0-.25.24-.45.52-.45s.52.2.52.45v1.68ZM104.85,49.34v2.33c-1.15,0-2.1.81-2.1,1.81v4.92h-2.1v-9.06h2.1v1.81c0-1,.94-1.81,2.1-1.81ZM91.23,49.34h2.1v9.06h-2.1v-.24c-.31.16-.69.24-1.05.24-1.15,0-2.1-.81-2.1-1.81v-7.25h2.1v6.79c0,.25.24.45.52.45s.52-.2.52-.45v-6.79ZM121.17,59.07c.72-.21,1.42-.43,2.1-.67v7.25h-2.1v-6.58ZM116.98,51.15v7.25h-2.1v-6.79c0-.25-.24-.45-.52-.45s-.52.2-.52.45v6.79h-2.09v-9.06h2.09v.24c.31-.16.69-.24,1.05-.24,1.15,0,2.1.81,2.1,1.81ZM132.16,53.87c0,2.32-3.13,4.46-8.82,6.04-.02,0-.05.01-.07.02v-.61c5.28-1.48,8.3-3.46,8.3-5.45s-3.06-3.99-8.39-5.48c-5.53-1.54-12.86-2.38-20.65-2.38-6.88,0-13.4.66-18.64,1.88v8.25c0,.25.24.45.52.45s.52-.2.52-.45v-4.98h-.52v-1.81h2.62v7.7c0,.75-.71,1.36-1.57,1.36h-2.1c-.87,0-1.57-.61-1.57-1.36v-8.62c-5.28,1.48-8.3,3.46-8.3,5.45s3.06,3.99,8.39,5.48c5.53,1.54,12.86,2.38,20.65,2.38,6.88,0,13.4-.66,18.64-1.88v.61c-5.26,1.2-11.78,1.86-18.64,1.86-7.84,0-15.23-.85-20.8-2.4-5.69-1.58-8.82-3.73-8.82-6.04s3.13-4.46,8.82-6.04c.02,0,.05-.01.07-.02v-4.36c0-.75.71-1.36,1.57-1.36h2.1c.87,0,1.57.61,1.57,1.36v2.26s-2.09,0-2.09,0v-1.36c0-.25-.24-.45-.52-.45s-.52.2-.52.45v2.92c5.26-1.2,11.77-1.86,18.64-1.86,7.84,0,15.23.85,20.8,2.4,5.69,1.58,8.82,3.73,8.82,6.04ZM123.18,59.35c-.64.18-1.32.35-2.01.51v-1.69c-.31.16-.69.24-1.05.24-1.15,0-2.09-.81-2.09-1.81v-7.25h2.09v6.79c0,.25.24.45.52.45s.52-.2.52-.45v-6.79h2.1v9.98s-.06.02-.09.03ZM109.12,49.34h-2.09c-.87,0-1.57.61-1.57,1.36v.97h2.1v-.06c0-.25.24-.45.52-.45s.52.2.52.45v1.08c-.31-.16-.69-.24-1.05-.24-1.15,0-2.1.81-2.1,1.81v2.33c0,1,.94,1.81,2.1,1.81.36,0,.74-.09,1.05-.24v.24h2.1v-7.7c0-.75-.71-1.36-1.57-1.36ZM108.6,56.14c0,.25-.24.45-.52.45s-.52-.2-.52-.45v-1.68c0-.25.24-.45.52-.45s.52.2.52.45v1.68Z"/>
        <g>
          <path class="cls-1" d="M175.6,86.47c-8.99-41.18-49.1-68.37-90.98-60.98C41.67,33.06,12.89,74.16,20.46,117.11c6.76,38.32,40.21,65.37,77.85,65.37,2.78,0,5.58-.15,8.39-.45,1.09,1.32,2.74,2.16,4.59,2.16,3.29,0,5.95-2.66,5.95-5.95s-2.66-5.95-5.95-5.95c-2.56,0-4.73,1.62-5.57,3.89-37.75,3.84-72.74-22.15-79.43-60.1-7.01-39.74,19.62-77.76,59.36-84.77,38.85-6.85,76.06,18.46,84.24,56.74-1.06,1.08-1.72,2.55-1.72,4.18,0,3.3,2.67,5.97,5.97,5.97s5.97-2.67,5.97-5.97c0-2.79-1.92-5.12-4.51-5.77Z"/>
          <path class="cls-1" d="M180.27,57.33C156.13,13.79,102.09-2.91,57.84,18.62c-.95-.64-2.1-1.02-3.33-1.02-3.28,0-5.95,2.66-5.95,5.95,0,3.28,2.66,5.95,5.95,5.95,3.16,0,5.73-2.46,5.93-5.56,41.45-20.15,92.06-4.51,114.66,36.26,23.37,42.17,8.08,95.49-34.08,118.86-20.43,11.32-44.04,14.01-66.49,7.57-21.08-6.04-38.76-19.46-50.22-37.98.57-.91.91-1.99.91-3.14,0-3.3-2.67-5.97-5.97-5.97s-5.97,2.67-5.97,5.97,2.6,5.88,5.82,5.96c12.22,19.93,31.17,34.37,53.79,40.86,8.53,2.45,17.22,3.66,25.86,3.66,15.62,0,31.08-3.96,45.12-11.75,45.02-24.95,61.34-81.88,36.39-126.9Z"/>
        </g>
      </g>
    </g>
  </g>
</svg>