<?xml version="1.0" encoding="UTF-8"?>
<svg xmlns="http://www.w3.org/2000/svg" version="1.1" viewBox="0 0 146.75 30.92">
  <defs>
    <style>
      .cls-1 {
        fill-rule: evenodd;
      }

      .cls-1, .cls-2 {
        fill: #fff;
      }
    </style>
  </defs>
  <!-- Generator: Adobe Illustrator 28.6.0, SVG Export Plug-In . SVG Version: 1.2.0 Build 709)  -->
  <g>
    <g id="Camada_1">
      <g>
        <g>
          <g>
            <path class="cls-1" d="M8.72,9.25c-.88-3.57-.92-6.24.05-6.87-3.06,1.32-5.62,3.78-6.99,7.08.46-1.11,3.21-1.12,6.94-.21Z"/>
            <path class="cls-1" d="M6.54,14.52c-3.28-1.99-5.22-3.94-4.76-5.05-1.37,3.31-1.28,6.86-.05,9.95-.22-1.13,1.68-2.99,4.81-4.89Z"/>
            <path class="cls-1" d="M13.97,7.06c1.99-3.28,3.94-5.23,5.05-4.78-3.31-1.37-6.87-1.27-9.95-.03,1.13-.24,3,1.67,4.91,4.8Z"/>
            <path class="cls-1" d="M19.23,9.24c3.54-.87,6.2-.92,6.86.03-1.32-3.05-3.77-5.62-7.07-6.98,1.11.46,1.12,3.22.21,6.95Z"/>
            <path class="cls-1" d="M13.99,21.93c-1.99,3.29-3.94,5.23-5.05,4.77,3.3,1.36,6.84,1.28,9.92.05-1.14.19-2.98-1.72-4.87-4.82Z"/>
            <path class="cls-1" d="M26.23,9.61c.2,1.13-1.71,2.99-4.82,4.88,3.28,1.99,5.23,3.93,4.77,5.04,1.36-3.29,1.27-6.83.04-9.92Z"/>
            <path class="cls-1" d="M8.73,19.77c-3.55.87-6.21.91-6.86-.04,1.31,3.05,3.77,5.61,7.07,6.98-1.1-.46-1.12-3.2-.21-6.94Z"/>
            <path class="cls-1" d="M19.25,19.76c.87,3.52.91,6.17-.02,6.85,3.04-1.32,5.6-3.77,6.96-7.07-.46,1.11-3.21,1.12-6.94.22Z"/>
          </g>
          <path class="cls-1" d="M9.43,12.62c1.03-2.5,3.92-3.72,6.43-2.69,2.52,1.04,3.71,3.95,2.68,6.45-1.04,2.52-3.92,3.72-6.45,2.68-2.51-1.04-3.71-3.92-2.67-6.44"/>
        </g>
        <path class="cls-2" d="M135.73,20.47V6.7l4.82-.41v2.2c.3-.79.77-1.37,1.4-1.75.64-.37,1.49-.56,2.54-.56.2,0,.36,0,.46,0,.1,0,.2.01.29.02l-1.18,4.98h-.2c-.99,0-1.71.2-2.17.61-.46.41-.68,1.06-.68,1.95v6.16l-5.29.57ZM119.14,13.4c0-2.1.7-3.82,2.09-5.14,1.39-1.32,3.19-1.98,5.4-1.98s4.01.66,5.4,1.98c1.38,1.32,2.08,3.04,2.08,5.14s-.69,3.85-2.08,5.18c-1.39,1.33-3.18,1.99-5.4,1.99s-4.03-.66-5.41-1.99c-1.38-1.33-2.08-3.05-2.08-5.18ZM126.63,11.29c-.61,0-1.12.19-1.51.58-.39.39-.59.89-.59,1.49s.19,1.09.58,1.47c.38.38.89.56,1.52.56s1.12-.19,1.51-.56c.38-.38.57-.86.57-1.47s-.19-1.11-.58-1.5c-.39-.38-.89-.58-1.5-.58ZM115.92,11.76c-.33-.23-.64-.4-.92-.5-.29-.11-.58-.16-.86-.16-.71,0-1.27.21-1.7.61-.43.41-.65.95-.65,1.61s.21,1.21.63,1.61c.41.4.97.6,1.67.6.37,0,.71-.06,1.02-.17.31-.11.59-.27.85-.5l3.22,3.82c-.74.63-1.57,1.1-2.48,1.42-.91.31-1.89.47-2.94.47-2.22,0-4.03-.66-5.41-1.99-1.38-1.33-2.08-3.05-2.08-5.18s.7-3.82,2.09-5.14c1.39-1.32,3.19-1.98,5.4-1.98.97,0,1.91.13,2.8.38.9.25,1.75.63,2.55,1.13l-3.18,3.96ZM100.22,27.16l-5.74.53,3.09-9.42-4.32-11.53,5.14-.68,1.53,5.57,1.19-5.57,4.78.5-5.67,20.6ZM78.38,12.41V1.79l5.26-.5v6.43c.41-.41.89-.71,1.46-.92.56-.21,1.2-.31,1.91-.31,1.87,0,3.38.64,4.54,1.92,1.16,1.28,1.74,2.96,1.74,5.05s-.7,3.87-2.1,5.17c-1.4,1.3-3.27,1.95-5.59,1.95s-4.11-.71-5.36-2.11c-1.25-1.41-1.87-3.43-1.87-6.05ZM83.65,13.35c0,.63.19,1.15.58,1.54.39.4.89.59,1.52.59s1.13-.2,1.53-.59c.4-.4.59-.91.59-1.54s-.2-1.16-.59-1.57c-.4-.41-.91-.61-1.53-.61s-1.13.2-1.52.61c-.39.41-.58.93-.58,1.57ZM62.29,12.41V1.79l5.26-.5v6.43c.41-.41.89-.71,1.46-.92.56-.21,1.2-.31,1.91-.31,1.87,0,3.38.64,4.54,1.92,1.16,1.28,1.74,2.96,1.74,5.05s-.7,3.87-2.1,5.17c-1.4,1.3-3.27,1.95-5.59,1.95s-4.11-.71-5.36-2.11c-1.25-1.41-1.87-3.43-1.87-6.05ZM67.55,13.35c0,.63.19,1.15.58,1.54.39.4.89.59,1.52.59s1.13-.2,1.53-.59c.4-.4.59-.91.59-1.54s-.2-1.16-.59-1.57c-.4-.41-.91-.61-1.53-.61s-1.13.2-1.52.61c-.39.41-.58.93-.58,1.57ZM46.1,13.4c0-2.1.7-3.82,2.09-5.14,1.39-1.32,3.19-1.98,5.4-1.98s4.01.66,5.4,1.98c1.38,1.32,2.08,3.04,2.08,5.14s-.69,3.85-2.08,5.18c-1.39,1.33-3.18,1.99-5.4,1.99s-4.03-.66-5.41-1.99c-1.38-1.33-2.08-3.05-2.08-5.18ZM53.59,11.29c-.61,0-1.12.19-1.51.58-.39.39-.59.89-.59,1.49s.19,1.09.58,1.47c.38.38.89.56,1.52.56s1.13-.19,1.51-.56c.38-.38.58-.86.58-1.47s-.19-1.11-.58-1.5c-.39-.38-.89-.58-1.51-.58ZM32.2,20.44V1.87l5.29-.58v6.85c.44-.6.97-1.06,1.58-1.37.61-.32,1.26-.48,1.94-.48,1.15,0,2.02.38,2.61,1.13.59.75.88,1.87.88,3.35v9.18l-5.24.5v-8.28c0-.35-.08-.62-.23-.81-.15-.19-.37-.29-.66-.29s-.5.1-.65.29c-.15.19-.23.46-.23.81v7.78l-5.29.5Z"/>
        <g>
          <path class="cls-2" d="M34.81,26.57h-1.47l-.35,1.07h-.79l1.48-4.19h.8l1.48,4.19h-.79l-.35-1.07ZM34.07,24.18s-.09.41-.18.65l-.37,1.12h1.1l-.37-1.12c-.08-.24-.17-.65-.17-.65h-.01Z"/>
          <path class="cls-2" d="M36.2,23.45h1.62c.79,0,1.33.55,1.33,1.36s-.55,1.38-1.33,1.38h-.86v1.45h-.76v-4.19ZM37.67,25.53c.44,0,.7-.28.7-.72s-.26-.71-.69-.71h-.73v1.43h.71Z"/>
          <path class="cls-2" d="M39.53,23.45h.76v3.54h1.81v.66h-2.58v-4.19Z"/>
          <path class="cls-2" d="M42.42,23.45h.76v4.19h-.76v-4.19Z"/>
          <path class="cls-2" d="M45.81,23.38c1.02,0,1.55.57,1.55.57l-.37.57s-.48-.44-1.15-.44c-.89,0-1.41.66-1.41,1.44s.54,1.5,1.41,1.5c.73,0,1.22-.53,1.22-.53l.4.55s-.58.68-1.65.68c-1.28,0-2.17-.95-2.17-2.19s.92-2.15,2.16-2.15Z"/>
          <path class="cls-2" d="M49.96,26.57h-1.47l-.35,1.07h-.79l1.48-4.19h.8l1.48,4.19h-.79l-.35-1.07ZM49.23,24.18s-.09.41-.18.65l-.37,1.12h1.1l-.37-1.12c-.08-.24-.17-.65-.17-.65h-.01Z"/>
          <path class="cls-2" d="M51.35,23.45h1.43c1.29,0,2.14.77,2.14,2.09s-.84,2.1-2.14,2.1h-1.43v-4.19ZM52.73,26.99c.85,0,1.39-.5,1.39-1.45s-.56-1.44-1.39-1.44h-.63v2.88h.63Z"/>
          <path class="cls-2" d="M57.29,23.38c1.23,0,2.17.94,2.17,2.14s-.93,2.2-2.17,2.2-2.17-.96-2.17-2.2.93-2.14,2.17-2.14ZM57.29,27.02c.77,0,1.38-.64,1.38-1.5s-.61-1.44-1.38-1.44-1.38.61-1.38,1.44.61,1.5,1.38,1.5Z"/>
          <path class="cls-2" d="M59.94,23.45h1.35c.45,0,.66.04.84.12.42.19.69.59.69,1.15,0,.5-.27.97-.71,1.15h0s.06.07.14.22l.86,1.57h-.85l-.83-1.57h-.73v1.57h-.76v-4.19ZM61.39,25.42c.41,0,.66-.24.66-.66s-.17-.65-.77-.65h-.58v1.31h.69Z"/>
          <path class="cls-2" d="M64.89,23.45h.82l.82,2.07c.09.25.21.61.21.61h.01s.11-.37.21-.61l.82-2.07h.82l.34,4.19h-.76l-.18-2.34c-.02-.28,0-.65,0-.65h-.01s-.12.41-.22.65l-.68,1.62h-.67l-.67-1.62c-.1-.24-.23-.66-.23-.66h-.01s.01.38,0,.66l-.18,2.34h-.76l.34-4.19Z"/>
          <path class="cls-2" d="M69.5,23.45h.76v2.69c0,.56.37.88.93.88s.93-.32.93-.89v-2.68h.76v2.69c0,.94-.68,1.58-1.69,1.58s-1.7-.64-1.7-1.58v-2.69Z"/>
          <path class="cls-2" d="M73.6,23.45h.76v3.54h1.81v.66h-2.58v-4.19Z"/>
          <path class="cls-2" d="M77.02,24.11h-1.38v-.66h3.51v.66h-1.38v3.54h-.76v-3.54Z"/>
          <path class="cls-2" d="M79.42,23.45h.76v4.19h-.76v-4.19Z"/>
          <path class="cls-2" d="M80.89,23.45h.76v2.69c0,.56.37.88.93.88s.93-.32.93-.89v-2.68h.76v2.69c0,.94-.68,1.58-1.69,1.58s-1.7-.64-1.7-1.58v-2.69Z"/>
          <path class="cls-2" d="M85.08,26.57s.45.44,1.05.44c.32,0,.61-.17.61-.51,0-.75-1.98-.62-1.98-1.91,0-.7.6-1.22,1.41-1.22s1.25.45,1.25.45l-.33.62s-.4-.37-.93-.37c-.35,0-.63.21-.63.5,0,.74,1.97.56,1.97,1.9,0,.67-.51,1.23-1.38,1.23-.93,0-1.45-.57-1.45-.57l.41-.57Z"/>
          <path class="cls-2" d="M89.84,23.38c1.23,0,2.17.94,2.17,2.14s-.93,2.2-2.17,2.2-2.17-.96-2.17-2.2.93-2.14,2.17-2.14ZM89.84,27.02c.77,0,1.38-.64,1.38-1.5s-.61-1.44-1.38-1.44-1.38.61-1.38,1.44.61,1.5,1.38,1.5Z"/>
        </g>
      </g>
    </g>
  </g>
</svg>