<?xml version="1.0" encoding="UTF-8"?>
<svg xmlns="http://www.w3.org/2000/svg" xmlns:xlink="http://www.w3.org/1999/xlink" version="1.1" viewBox="0 0 376.92 166.15">
  <defs>
    <style>
      .cls-1 {
        fill: none;
      }

      .cls-2 {
        fill: #fff;
      }

      .cls-2, .cls-3 {
        fill-rule: evenodd;
      }

      .cls-3, .cls-4 {
        fill: #1b1918;
      }

      .cls-5 {
        clip-path: url(#clippath);
      }
    </style>
    <clipPath id="clippath">
      <rect class="cls-1" x="15.42" y="13.3" width="348.26" height="139.18"/>
    </clipPath>
  </defs>
  <!-- Generator: Adobe Illustrator 28.6.0, SVG Export Plug-In . SVG Version: 1.2.0 Build 709)  -->
  <g>
    <g id="Camada_1">
      <g>
        <path class="cls-2" d="M189.36,34.6c94.91,0,172.32,21.51,172.32,47.89s-77.41,47.89-172.32,47.89S17.04,108.87,17.04,82.49s77.41-47.89,172.32-47.89h0ZM189.36,34.6"/>
        <g class="cls-5">
          <path class="cls-4" d="M189.36,132.21c-46.06,0-89.48-5.01-122.24-14.12-33.47-9.3-51.91-21.95-51.91-35.6s18.43-26.3,51.91-35.6c32.76-9.11,76.18-14.12,122.24-14.12s89.48,5.01,122.24,14.12c33.47,9.3,51.91,21.95,51.91,35.6s-18.43,26.3-51.91,35.6c-32.77,9.11-76.18,14.12-122.24,14.12ZM189.36,36.43c-92.42,0-170.49,21.09-170.49,46.06s78.08,46.06,170.49,46.06,170.49-21.09,170.49-46.06-78.08-46.06-170.49-46.06Z"/>
        </g>
        <path class="cls-3" d="M280.39,98.45c0,5.86,5.53,10.65,12.31,10.65,2.12,0,4.33-.5,6.16-1.41v43.99h12.31V55.88h-12.31v39.91c0,1.47-1.38,2.66-3.08,2.66s-3.08-1.19-3.08-2.66v-39.91h-12.31v42.57ZM255.78,57.29v-1.41h-12.31v53.21h12.31v-39.91c0-1.46,1.38-2.66,3.08-2.66s3.08,1.19,3.08,2.66v39.91h12.31v-42.57c0-5.86-5.53-10.64-12.31-10.64-2.11,0-4.33.5-6.15,1.41h0ZM225,95.79c0,1.47-1.38,2.66-3.08,2.66s-3.08-1.19-3.08-2.66v-9.88c0-1.46,1.38-2.66,3.08-2.66s3.08,1.19,3.08,2.66v9.88ZM225,107.68c-1.83.91-4.04,1.41-6.15,1.41-6.78,0-12.31-4.78-12.31-10.65v-13.68c0-5.86,5.53-10.64,12.31-10.64,2.11,0,4.33.5,6.15,1.42v-6.36c0-1.46-1.38-2.66-3.08-2.66s-3.08,1.19-3.08,2.66v.38h-12.31v-5.7c0-4.39,4.15-7.98,9.23-7.98h12.31c5.08,0,9.23,3.59,9.23,7.98v45.23h-12.31v-1.41ZM202.94,55.88c-6.78,0-12.31,4.78-12.31,10.64v-10.64h-12.31v53.21h12.31v-28.89c0-5.86,5.53-10.64,12.31-10.64v-13.68ZM159.87,95.79v-9.88c0-1.46-1.38-2.66-3.08-2.66s-3.08,1.19-3.08,2.66v9.88c0,1.47,1.38,2.66,3.08,2.66s3.08-1.19,3.08-2.66h0ZM159.87,107.68c-1.83.91-4.04,1.41-6.16,1.41-6.78,0-12.31-4.78-12.31-10.65v-13.68c0-5.86,5.53-10.64,12.31-10.64,2.12,0,4.33.5,6.16,1.42v-6.36c0-1.46-1.38-2.66-3.08-2.66s-3.08,1.19-3.08,2.66v.38h-12.31v-5.7c0-4.39,4.15-7.98,9.23-7.98h12.31c5.08,0,9.23,3.59,9.23,7.98v45.23h-12.31v-1.41ZM104.48,98.45v-42.57h12.31v39.91c0,1.47,1.38,2.66,3.08,2.66s3.08-1.19,3.08-2.66v-39.91h12.31v53.21h-12.31v-1.41c-1.83.91-4.04,1.41-6.16,1.41-6.78,0-12.31-4.78-12.31-10.65h0ZM67.55,21.29c0-4.39,4.15-7.98,9.23-7.98h12.31c5.08,0,9.23,3.59,9.23,7.98v13.31h-12.31v-7.98c0-1.46-1.38-2.66-3.08-2.66s-3.08,1.19-3.08,2.66v69.18c0,1.47,1.38,2.66,3.08,2.66s3.08-1.19,3.08-2.66v-29.27h-3.08v-10.64h15.38v45.23c0,4.4-4.15,7.98-9.23,7.98h-12.31c-5.08,0-9.23-3.59-9.23-7.98V21.29ZM67.55,21.29"/>
      </g>
    </g>
  </g>
</svg>