<?xml version="1.0" encoding="UTF-8"?>
<svg xmlns="http://www.w3.org/2000/svg" version="1.1" viewBox="0 0 191.4 35.38">
  <defs>
    <style>
      .cls-1 {
        fill: #fff;
      }
    </style>
  </defs>
  <!-- Generator: Adobe Illustrator 28.6.0, SVG Export Plug-In . SVG Version: 1.2.0 Build 709)  -->
  <g>
    <g id="Camada_1">
      <g>
        <path class="cls-1" d="M.94,31.34l2.57-4.53c2.06,1.3,4.22,1.93,6.06,1.93,1.47,0,2.42-.41,3.19-1.15.66-.67,1.1-1.6,1.43-2.9l.22-.86c-1.62,1.71-3.23,2.53-5.25,2.53-3.23,0-5.84-2.27-5.84-6.54,0-3.46,1.36-7.54,3.75-9.96,1.51-1.52,3.34-2.42,5.43-2.42,2.53,0,4.15,1.34,5.07,3.08l.62-2.68h6.61l-3.97,16.54c-.77,3.23-1.69,5.24-3.19,6.73-1.73,1.75-4.15,2.56-7.71,2.56-3.16,0-6.57-.86-9-2.34ZM14.49,20.38c.92-1,1.65-2.79,1.65-4.61s-.95-2.94-2.35-2.94c-.92,0-1.54.33-2.13.97-1.14,1.15-1.73,3.23-1.73,4.76,0,1.9.84,2.82,2.28,2.82.92,0,1.69-.41,2.28-1Z"/>
        <path class="cls-1" d="M24.41,23.24c0-1,.18-2.19.51-3.53l2.83-11.85h6.61l-2.68,11.19c-.18.71-.26,1.38-.26,1.78,0,1.04.51,1.67,1.65,1.67,1.47,0,2.39-1.19,2.79-2.97l2.79-11.67h6.57l-4.85,20.18h-6.57l.51-2.16c-1.18,1.34-2.9,2.56-5.07,2.56-3.05,0-4.85-1.97-4.85-5.2Z"/>
        <path class="cls-1" d="M44.1,23.24c0-2.04.7-4.09,2.02-5.43,1.32-1.34,3.34-2.08,5.8-2.08,1.54,0,2.83.3,4.19.78l.07-.3c.11-.45.18-.97.18-1.41,0-1.15-.73-1.93-2.79-1.93-1.51,0-3.3.45-4.55.97l-1.06-5.05c2.02-.74,4.41-1.19,7.01-1.19,5.25,0,7.97,2.16,7.97,5.91,0,1.04-.18,2.16-.48,3.31l-2.64,11.22h-6.5l.44-1.93c-1.43,1.45-2.86,2.3-4.85,2.3-2.97,0-4.81-2.04-4.81-5.17ZM55.08,21.05l.33-1.41c-.55-.22-1.36-.41-2.06-.41-.84,0-1.54.26-2.02.78-.59.56-.92,1.49-.92,2.42,0,1.12.55,1.82,1.62,1.82,1.51,0,2.64-1.49,3.05-3.2Z"/>
        <path class="cls-1" d="M67.61,7.85h6.57l-.84,3.46c1.54-2.49,3.41-3.98,6.13-3.79l-1.84,7.17h-.44c-3.23,0-5.1,1.67-6.1,5.76l-1.76,7.58h-6.61l4.88-20.18Z"/>
        <path class="cls-1" d="M76.68,23.24c0-2.04.7-4.09,2.02-5.43,1.32-1.34,3.34-2.08,5.8-2.08,1.54,0,2.83.3,4.19.78l.07-.3c.11-.45.18-.97.18-1.41,0-1.15-.73-1.93-2.79-1.93-1.51,0-3.3.45-4.55.97l-1.06-5.05c2.02-.74,4.41-1.19,7.01-1.19,5.25,0,7.97,2.16,7.97,5.91,0,1.04-.18,2.16-.48,3.31l-2.64,11.22h-6.5l.44-1.93c-1.43,1.45-2.86,2.3-4.85,2.3-2.97,0-4.81-2.04-4.81-5.17ZM87.66,21.05l.33-1.41c-.55-.22-1.36-.41-2.06-.41-.84,0-1.54.26-2.02.78-.59.56-.92,1.49-.92,2.42,0,1.12.55,1.82,1.62,1.82,1.51,0,2.64-1.49,3.05-3.2Z"/>
        <path class="cls-1" d="M100.19,7.85h6.57l-.51,2.12c1.18-1.3,2.9-2.53,5.03-2.53,3.05,0,4.88,1.97,4.88,5.2,0,.97-.22,2.19-.51,3.53l-2.83,11.85h-6.61l2.68-11.19c.18-.74.26-1.41.26-1.78,0-1.08-.51-1.67-1.65-1.67-1.47,0-2.39,1.15-2.79,2.97l-2.79,11.67h-6.61l4.88-20.18Z"/>
        <path class="cls-1" d="M118.4,7.85h6.65l.18,12.04,5.51-12.04h6.9l-10.76,19.99c-2.28,4.24-4.37,5.87-7.82,5.87-1.91,0-3.6-.6-4.85-1.56l2.57-4.68c.84.67,1.58.93,2.24.93.44,0,.81-.19,1.14-.6l-1.76-19.96Z"/>
        <path class="cls-1" d="M139.63,7.85h6.57l-4.85,20.18h-6.61l4.88-20.18ZM141.21,1.02h6.79l-1.32,5.2h-6.79l1.32-5.2Z"/>
        <path class="cls-1" d="M149.48,7.85h6.57l-.51,2.12c1.17-1.3,2.9-2.53,5.03-2.53,3.05,0,4.89,1.97,4.89,5.2,0,.97-.22,2.19-.51,3.53l-2.83,11.85h-6.61l2.68-11.19c.19-.74.26-1.41.26-1.78,0-1.08-.51-1.67-1.65-1.67-1.47,0-2.39,1.15-2.79,2.97l-2.79,11.67h-6.61l4.88-20.18Z"/>
        <path class="cls-1" d="M177.31,25.95c-1.43,1.49-3.05,2.49-4.96,2.49-3.2,0-5.8-2.71-5.8-7.62,0-3.83,1.4-8.36,3.89-10.89,1.58-1.6,3.53-2.53,5.62-2.53,2.39,0,4.04,1.19,5.07,2.97l2.17-9.25h6.61l-6.5,26.9h-6.57l.48-2.08ZM177.9,21.86c1.25-1.26,1.98-3.68,1.98-5.65s-.95-3.2-2.46-3.2c-.77,0-1.58.33-2.2.97-1.21,1.23-1.98,3.57-1.98,5.61s.85,3.23,2.46,3.23c.85,0,1.58-.33,2.2-.97Z"/>
      </g>
    </g>
  </g>
</svg>