<?xml version="1.0" encoding="UTF-8"?>
<svg xmlns="http://www.w3.org/2000/svg" version="1.1" viewBox="0 0 266.19 35.38">
  <defs>
    <style>
      .cls-1 {
        fill: #fff;
      }
    </style>
  </defs>
  <!-- Generator: Adobe Illustrator 28.6.0, SVG Export Plug-In . SVG Version: 1.2.0 Build 709)  -->
  <g>
    <g id="Camada_1">
      <g>
        <path class="cls-1" d="M134.1,29.68l2.43-4.24c1.95,1.22,4,1.81,5.74,1.81,1.39,0,2.29-.38,3.02-1.08.62-.62,1.04-1.5,1.36-2.71l.21-.8c-1.53,1.6-3.06,2.36-4.97,2.36-3.06,0-5.53-2.12-5.53-6.12,0-3.23,1.29-7.06,3.55-9.32,1.43-1.42,3.17-2.26,5.15-2.26,2.4,0,3.93,1.25,4.8,2.89l.59-2.5h6.26l-3.76,15.47c-.73,3.03-1.6,4.9-3.02,6.29-1.63,1.63-3.93,2.4-7.3,2.4-2.99,0-6.23-.8-8.52-2.19ZM146.92,19.43c.87-.94,1.56-2.61,1.56-4.31s-.9-2.74-2.22-2.74c-.87,0-1.46.31-2.01.9-1.08,1.08-1.63,3.02-1.63,4.45,0,1.77.8,2.64,2.15,2.64.87,0,1.6-.39,2.16-.94Z"/>
        <path class="cls-1" d="M156.32,22.1c0-.94.17-2.05.49-3.3l2.67-11.09h6.26l-2.54,10.46c-.17.66-.24,1.28-.24,1.67,0,.97.49,1.56,1.56,1.56,1.39,0,2.26-1.11,2.64-2.78l2.64-10.92h6.22l-4.59,18.88h-6.22l.49-2.02c-1.11,1.25-2.75,2.4-4.8,2.4-2.89,0-4.59-1.84-4.59-4.87Z"/>
        <path class="cls-1" d="M174.96,22.1c0-1.91.66-3.82,1.91-5.07,1.25-1.25,3.17-1.95,5.49-1.95,1.46,0,2.68.28,3.96.73l.07-.28c.11-.42.17-.9.17-1.32,0-1.08-.69-1.81-2.64-1.81-1.42,0-3.13.42-4.31.9l-1.01-4.73c1.91-.7,4.17-1.11,6.64-1.11,4.97,0,7.55,2.02,7.55,5.53,0,.97-.17,2.01-.45,3.09l-2.5,10.5h-6.16l.42-1.81c-1.35,1.35-2.71,2.16-4.59,2.16-2.82,0-4.56-1.91-4.56-4.84ZM185.35,20.05l.31-1.32c-.52-.21-1.28-.38-1.95-.38-.8,0-1.46.24-1.91.73-.56.52-.87,1.39-.87,2.26,0,1.04.52,1.7,1.53,1.7,1.43,0,2.5-1.39,2.89-2.99Z"/>
        <path class="cls-1" d="M197.21,7.71h6.23l-.8,3.23c1.46-2.33,3.23-3.72,5.81-3.55l-1.74,6.71h-.42c-3.06,0-4.83,1.56-5.77,5.39l-1.67,7.09h-6.26l4.62-18.88Z"/>
        <path class="cls-1" d="M205.8,22.1c0-1.91.66-3.82,1.91-5.07,1.25-1.25,3.17-1.95,5.49-1.95,1.46,0,2.68.28,3.96.73l.07-.28c.11-.42.17-.9.17-1.32,0-1.08-.69-1.81-2.64-1.81-1.42,0-3.13.42-4.31.9l-1.01-4.73c1.91-.7,4.17-1.11,6.64-1.11,4.97,0,7.55,2.02,7.55,5.53,0,.97-.17,2.01-.45,3.09l-2.5,10.5h-6.16l.42-1.81c-1.35,1.35-2.71,2.16-4.59,2.16-2.82,0-4.56-1.91-4.56-4.84ZM216.2,20.05l.31-1.32c-.52-.21-1.28-.38-1.95-.38-.8,0-1.46.24-1.91.73-.56.52-.87,1.39-.87,2.26,0,1.04.52,1.7,1.53,1.7,1.43,0,2.5-1.39,2.89-2.99Z"/>
        <path class="cls-1" d="M228.06,7.71h6.23l-.49,1.98c1.11-1.22,2.75-2.36,4.77-2.36,2.89,0,4.62,1.84,4.62,4.87,0,.9-.21,2.05-.49,3.3l-2.67,11.09h-6.26l2.54-10.46c.17-.7.24-1.32.24-1.67,0-1.01-.49-1.56-1.56-1.56-1.39,0-2.26,1.08-2.64,2.78l-2.64,10.92h-6.26l4.62-18.88Z"/>
        <path class="cls-1" d="M245.3,7.71h6.29l.17,11.26,5.22-11.26h6.54l-10.19,18.7c-2.16,3.96-4.14,5.49-7.4,5.49-1.81,0-3.41-.56-4.59-1.46l2.43-4.38c.8.63,1.5.87,2.12.87.41,0,.76-.17,1.07-.56l-1.67-18.67Z"/>
        <path class="cls-1" d="M2.47,19.08c0-3.2,1.15-6.57,3.47-8.9,1.81-1.81,4.03-2.82,6.75-2.82,3.47,0,5.56,1.63,6.74,3.96l-4.45,3.2c-.66-1.18-1.36-1.88-2.4-1.88-.83,0-1.53.35-2.12.97-1.18,1.15-1.88,3.3-1.88,5.08,0,2.01.97,3.02,2.26,3.02,1.04,0,1.81-.52,2.75-1.35l3.23,3.72c-1.56,1.71-3.61,2.92-6.57,2.92-4.62,0-7.78-3.02-7.78-7.93Z"/>
        <path class="cls-1" d="M36.96,15.46c0,3.2-1.25,6.61-3.4,8.76-1.74,1.77-4,2.78-6.64,2.78-5.07,0-8-3.37-8-8.13,0-3.23,1.22-6.61,3.41-8.8,1.74-1.74,3.96-2.74,6.64-2.74,5.04,0,8,3.34,8,8.13ZM29.14,20.92c1.15-1.11,1.84-3.41,1.84-5.22,0-2.09-.9-3.17-2.36-3.17-.73,0-1.39.32-1.91.83-1.11,1.11-1.84,3.45-1.84,5.25,0,2.05.94,3.16,2.36,3.16.77,0,1.43-.35,1.91-.87Z"/>
        <path class="cls-1" d="M41.52,7.71h6.23l-.8,3.23c1.46-2.33,3.23-3.72,5.81-3.55l-1.74,6.71h-.42c-3.06,0-4.83,1.56-5.77,5.39l-1.67,7.09h-6.26l4.62-18.88Z"/>
        <path class="cls-1" d="M50.11,22.1c0-1.91.66-3.82,1.91-5.07,1.25-1.25,3.17-1.95,5.49-1.95,1.46,0,2.68.28,3.96.73l.07-.28c.11-.42.17-.9.17-1.32,0-1.08-.69-1.81-2.64-1.81-1.42,0-3.13.42-4.31.9l-1.01-4.73c1.91-.7,4.17-1.11,6.64-1.11,4.97,0,7.55,2.02,7.55,5.53,0,.97-.17,2.01-.45,3.09l-2.5,10.5h-6.16l.42-1.81c-1.35,1.35-2.71,2.16-4.59,2.16-2.82,0-4.56-1.91-4.56-4.84ZM60.5,20.05l.31-1.32c-.52-.21-1.28-.38-1.95-.38-.8,0-1.46.24-1.91.73-.56.52-.87,1.39-.87,2.26,0,1.04.52,1.7,1.53,1.7,1.43,0,2.5-1.39,2.89-2.99Z"/>
        <path class="cls-1" d="M72.36,7.71h6.23l-.49,1.98c1.11-1.22,2.75-2.36,4.77-2.36,2.89,0,4.62,1.84,4.62,4.87,0,.9-.21,2.05-.49,3.3l-2.67,11.09h-6.26l2.54-10.46c.17-.7.24-1.32.24-1.67,0-1.01-.49-1.56-1.56-1.56-1.39,0-2.26,1.08-2.64,2.78l-2.64,10.92h-6.26l4.62-18.88Z"/>
        <path class="cls-1" d="M89.02,22.84c0-.77.14-1.53.35-2.4l1.84-7.68h-1.88l1.25-5.04h1.88l1.11-4.62h6.26l-1.11,4.62h3.47l-1.28,5.04h-3.44l-1.67,6.92c-.11.38-.14.73-.14,1.01,0,.56.38.9,1.18.9.63,0,1.29-.14,2.05-.42l-1.28,5.11c-1.04.42-2.29.66-3.61.66-3.23,0-4.97-1.5-4.97-4.1Z"/>
        <path class="cls-1" d="M106.99,19.12c.07,1.95,1.08,3.06,2.89,3.06,1.25,0,2.36-.45,3.68-1.36l2.44,3.93c-1.7,1.36-3.96,2.26-6.67,2.26-5.11,0-8.1-3.17-8.1-8.17,0-3.17,1.25-6.5,3.51-8.76,1.7-1.7,3.93-2.74,6.71-2.74,4.69,0,7.06,3.2,7.06,7.3,0,1.36-.24,2.92-.76,4.49h-10.74ZM107.44,15.71h5.28c.17-.62.21-.97.21-1.46,0-1.25-.7-2.19-1.95-2.19-.77,0-1.5.35-2.09.94-.62.62-1.15,1.6-1.46,2.71Z"/>
        <path class="cls-1" d="M117.67,23.77l3.06-3.89c1.63,1.6,3.55,2.57,5.07,2.57.9,0,1.39-.49,1.39-1.11,0-.73-.59-1.11-2.5-2.26-2.5-1.5-4.03-2.92-4.03-5.39,0-3.48,2.71-6.36,7.34-6.36,2.95,0,5.46,1.15,7.23,2.67l-2.95,4c-1.46-1.29-3.02-2.12-4.45-2.12-.77,0-1.29.42-1.29,1.01,0,.7.49,1.01,2.44,2.16,2.67,1.56,4.14,3.06,4.14,5.56,0,3.3-2.54,6.39-7.34,6.39-3.2,0-5.98-1.22-8.1-3.23Z"/>
      </g>
    </g>
  </g>
</svg>